<svg id="Layer_1" data-name="Layer 1" xmlns="http://www.w3.org/2000/svg" width="170.12" height="102.95" viewBox="0 0 170.12 102.95"><title>CAT logo - Brandlogos.net</title><path d="M347.65,418.48c3.89-3.24,4.55-7.25,4.55-10.85V392.51H331.09V413a5.31,5.31,0,0,1-5.31,5.31,5.15,5.15,0,0,1-5.11-5.31V354.89a5.14,5.14,0,0,1,5.11-5.31,5.31,5.31,0,0,1,5.31,5.31v20.65h21.09V354.13c0-11.84-7.73-21.58-26.58-21.6-19.35,0-26.66,9.79-26.66,21.62v60.7c0,11.73,9.31,20.61,21.22,20.61h6.54Z" transform="translate(-298.94 -332.53)" style="fill:#232020"/><polygon points="131.95 88.34 131.95 21.64 117.38 21.64 117.38 1.98 170.12 1.98 170.12 21.64 155.47 21.64 155.47 102.81 149.23 102.81 131.95 88.34" style="fill:#232020"/><polygon points="141.4 102.95 90.04 59.92 36.82 102.95 141.4 102.95" style="fill:#ffc820"/><path d="M403.64,334.62H374.21l-17.14,76.9L389,385.77l33.28,27.88ZM383.3,380.84,389,351.77l5.65,29.06Z" transform="translate(-298.94 -332.53)" style="fill:#232020"/></svg>