<?xml version="1.0" encoding="utf-8"?>
<svg xmlns="http://www.w3.org/2000/svg" xmlns:xlink="http://www.w3.org/1999/xlink" width="249px" height="68px" viewBox="0 0 249 68" version="1.1">
    <title>Visual</title>
    <g id="Page-1" stroke="none" stroke-width="1" fill="none" fill-rule="evenodd">
        <g id="Visual" transform="translate(0, -189)" fill="#63513D" fill-rule="nonzero">
            <path d="M192.623368,190.522051 L187.412721,190.522051 C186.055781,190.522051 185.140816,191.002795 184.481732,191.793697 C183.954464,192.445028 183.605536,193.282453 183.605536,194.422282 L183.605536,251.708388 C183.605536,252.848217 183.954464,253.677889 184.481732,254.336974 C185.140816,255.127875 186.055781,255.60862 187.412721,255.60862 L192.623368,255.60862 C193.980308,255.60862 194.895272,255.127875 195.554357,254.336974 C196.081625,253.685643 196.430552,252.848217 196.430552,251.708388 L196.430552,194.422282 C196.430552,193.282453 196.081625,192.452781 195.554357,191.793697 C194.895272,191.002795 193.980308,190.522051 192.623368,190.522051 Z" id="Path"/>
            <path d="M224.523076,207.022434 C209.333108,207.022434 200.796021,218.885962 200.796021,231.40082 C200.796021,244.753104 209.945669,256.484815 224.600615,256.484815 C231.920334,256.484815 239.092728,253.724412 243.21007,248.870446 C245.00123,246.761375 246.451217,243.830385 246.451217,242.039225 C246.451217,241.426664 246.3194,240.899396 245.970473,240.511699 C245.621545,240.069725 245.094278,239.806091 244.179313,239.806091 L237.138736,239.806091 C235.735272,239.806091 234.773784,240.325605 234.068175,241.387894 C232.013381,244.404177 229.043623,245.985981 224.662647,245.985981 C218.09506,245.985981 213.845901,240.992444 213.543497,235.518162 L244.094019,235.518162 C245.443205,235.518162 246.420201,235.215758 247.071532,234.556674 C247.81591,233.858819 248.164838,232.850807 248.164838,230.974354 C248.164838,225.236438 246.373678,219.281413 242.605263,214.737604 C238.743801,210.131764 232.796529,207.022434 224.523076,207.022434 Z M213.621037,226.190173 C214.194828,220.808939 218.31217,216.784644 224.561845,216.784644 C230.695212,216.784644 234.936617,220.808939 235.510408,226.190173 L213.621037,226.190173 Z" id="Shape"/>
            <path d="M138.260497,227.632406 L128.327701,225.089113 C124.210359,224.042331 122.287382,223.290199 122.287382,220.762415 C122.287382,218.304416 124.481747,216.334916 129.552823,216.334916 C132.530336,216.334916 135.244215,216.994 136.996605,218.831684 C138.438838,220.35921 138.175204,221.150112 139.315033,221.762673 C140.020642,222.111601 140.80379,222.111601 142.028912,222.111601 L146.975926,222.111601 C147.766827,222.111601 148.332865,221.979784 148.767086,221.499039 C149.123767,221.103588 149.333123,220.491027 149.333123,219.483015 C149.333123,217.203357 147.852121,214.272368 145.223535,212.039233 C141.718755,209.02295 136.205703,207.01468 129.552823,207.01468 C117.565233,207.01468 109.68723,212.706072 109.68723,221.801443 C109.68723,225.04259 110.865829,227.663421 112.788806,229.718215 C115.02194,232.129691 118.216564,233.796788 122.853419,234.975386 L132.879263,237.503171 C135.631912,238.208779 138.089911,239.046205 138.089911,241.442172 C138.089911,245.164063 134.150909,246.427955 129.94052,246.427955 C127.885726,246.427955 125.745639,246.040258 123.993249,245.164063 C122.768126,244.551502 121.721344,243.683061 120.969212,242.496708 C120.317881,241.488696 120.093017,240.744317 119.092759,240.17828 C118.480197,239.821599 117.735819,239.782829 116.727807,239.782829 L111.300049,239.782829 C110.121451,239.782829 109.555413,240.131756 109.159962,240.6125 C108.764511,241.093245 108.632694,241.791099 108.632694,242.496708 C108.632694,244.241344 109.245255,246.427955 110.687488,248.40521 C114.013928,252.863725 120.969212,256.461553 129.855227,256.461553 C138.609425,256.461553 150.728832,252.824955 150.728832,241.093245 C150.728832,238.069208 149.852637,235.487146 148.239818,233.385829 C146.17727,230.741735 143.246281,228.911806 138.260497,227.632406 Z" id="Path"/>
            <path d="M177.29383,208.689531 L169.377057,208.689531 L169.377057,194.422282 C169.377057,193.282453 169.020376,192.452781 168.500862,191.793697 C167.841777,191.010549 166.919058,190.529804 165.569873,190.529804 L160.622859,190.529804 C159.273674,190.529804 158.350955,191.010549 157.69187,191.793697 C157.172356,192.452781 156.815675,193.282453 156.815675,194.422282 L156.815675,208.689531 L154.36543,208.689531 C153.450465,208.689531 152.744857,208.953165 152.217589,209.387386 C151.643797,209.914654 151.387917,210.612508 151.387917,211.65929 L151.387917,214.675572 C151.387917,215.730108 151.643797,216.435717 152.217589,216.947477 C152.744857,217.389451 153.442711,217.653085 154.36543,217.653085 L156.815675,217.653085 L156.815675,239.488179 C156.815675,245.086524 158.350955,248.591304 161.196651,251.390477 C163.817482,253.972538 167.23697,255.593112 173.184242,255.593112 L176.906133,255.593112 C177.821097,255.593112 178.518952,255.329478 179.04622,254.887503 C179.620011,254.367989 179.961185,253.670135 179.961185,252.615599 L179.961185,248.808415 C179.961185,247.761633 179.612257,247.056024 179.04622,246.53651 C178.518952,246.094536 177.821097,245.830902 176.906133,245.830902 L176.378865,245.830902 C174.013913,245.830902 172.39334,245.218341 171.29228,244.163805 C169.981864,242.938682 169.32278,241.062229 169.32278,238.60423 L169.32278,217.645331 L177.29383,217.645331 C178.208794,217.645331 178.914403,217.381697 179.433917,216.939723 C180.007708,216.420209 180.263588,215.7146 180.263588,214.667818 L180.263588,211.651536 C180.263588,210.597 179.999954,209.899146 179.433917,209.379632 C178.922157,208.953165 178.216548,208.689531 177.29383,208.689531 Z" id="Path"/>
            <path d="M243.830385,200.32303 C244.74535,200.32303 245.443205,200.059396 245.970473,199.617422 C246.544264,199.097908 246.800144,198.392299 246.800144,197.345517 L246.800144,193.274699 C246.800144,191.692895 246.497741,190.901994 245.970473,190.335956 C245.497482,189.816442 244.698827,189.514038 243.830385,189.514038 C243.124777,189.514038 242.426922,189.599332 241.248324,189.723395 L206.316826,193.181652 C205.316567,193.274699 204.828069,193.577103 204.479142,193.972554 C204.075937,194.414528 203.913104,194.972812 203.913104,195.763714 L203.913104,198.043372 C203.913104,198.919567 204.083691,199.307264 204.393848,199.663945 C204.781545,200.098166 205.355337,200.315276 206.138485,200.315276 L243.830385,200.315276 L243.830385,200.32303 Z" id="Path"/>
            <path d="M82.5872109,207.022434 C67.3972432,207.022434 58.8601557,218.885962 58.8601557,231.40082 C58.8601557,244.753104 68.0098044,256.484815 82.6647503,256.484815 C89.9767154,256.484815 97.1491096,253.724412 101.266451,248.870446 C103.065365,246.761375 104.515352,243.830385 104.515352,242.039225 C104.515352,241.426664 104.383535,240.899396 104.034608,240.511699 C103.685681,240.069725 103.158413,239.806091 102.243448,239.806091 L95.1951168,239.806091 C93.7994076,239.806091 92.8301652,240.325605 92.1323106,241.387894 C90.0775166,244.404177 87.0922499,245.985981 82.7190279,245.985981 C76.159195,245.985981 71.9100361,240.992444 71.6076324,235.518162 L102.072861,235.518162 C103.429801,235.518162 104.391289,235.215758 105.04262,234.556674 C105.794752,233.858819 106.14368,232.850807 106.14368,230.974354 C106.14368,225.236438 104.352519,219.281413 100.584105,214.737604 C96.7303968,210.131764 90.8529106,207.022434 82.5872109,207.022434 Z M71.6851718,226.190173 C72.2589634,220.808939 76.3685514,216.784644 82.6259806,216.784644 C88.7593469,216.784644 93.0007519,220.808939 93.5667894,226.190173 L71.6851718,226.190173 Z" id="Shape"/>
            <path d="M148.061477,199.625176 C148.627515,199.105662 148.891149,198.400053 148.891149,197.353271 L148.891149,193.491809 C148.891149,192.445028 148.627515,191.739419 148.061477,191.219905 C147.534209,190.777931 146.836355,190.522051 145.92139,190.522051 L46.1281868,190.522051 C44.4610898,190.522051 43.414308,191.088088 42.6699298,191.964283 C42.0573685,192.716415 41.7084412,193.538333 41.7084412,194.980566 L41.7084412,234.72726 L41.483577,234.72726 C41.483577,234.72726 19.7337763,195.949808 18.6792406,194.158648 C17.9348624,192.879248 17.1051908,192.010807 16.0118853,191.351722 C14.9185798,190.739161 13.7787507,190.34371 11.5921397,190.34371 L4.41974559,190.34371 C2.75264857,190.34371 1.70586672,190.909747 0.961488513,191.785943 C0.348927283,192.530321 0,193.367746 0,194.809979 L0,251.134597 C0,252.576829 0.348927283,253.414255 0.961488513,254.158633 C1.70586672,255.034828 2.75264857,255.600866 4.41974559,255.600866 L8.49056389,255.600866 C10.1576609,255.600866 11.2044428,255.034828 11.948821,254.158633 C12.5613822,253.414255 12.9103095,252.576829 12.9103095,251.134597 L12.9103095,210.441921 L13.1351737,210.441921 C13.1351737,210.441921 35.7223998,250.444496 36.6373647,251.933252 C37.9090108,254.026816 40.0490982,255.60862 43.1196582,255.60862 L50.082696,255.60862 C51.7420391,255.60862 52.788821,255.042582 53.5331992,254.166387 C54.1535143,253.422009 54.4946877,252.584583 54.4946877,251.14235 L54.4946877,200.330784 L145.929144,200.330784 C146.836355,200.32303 147.534209,200.059396 148.061477,199.625176 Z" id="Path"/>
        </g>
    </g>
</svg>