<?xml version="1.0" encoding="utf-8"?>
<svg xmlns="http://www.w3.org/2000/svg" xmlns:xlink="http://www.w3.org/1999/xlink" width="412" height="97.83" viewBox="0 0 412 97.83">
  <defs>
    <clipPath id="clip-Intigriti-Red-Bull">
      <rect width="412" height="97.83"/>
    </clipPath>
  </defs>
  <g id="Intigriti-Red-Bull" clip-path="url(#clip-Intigriti-Red-Bull)">
    <g id="f-rbmn-logo-logotype" transform="translate(-217.386 -17.055)">
      <g id="f-rbmn-logotype" transform="translate(217.386 17.054)">
        <path id="Shape" d="M314.865,72.909a10.335,10.335,0,0,0,20.661,0V40.095h17.926v36.46c0,12.153-12.761,22.18-28.56,22.18s-28.56-10.027-28.56-22.18V40.095h18.23V72.909Zm79.6,23.7H412.7V.9H394.47Zm-30.687,0h18.23V.9h-18.23ZM30.172,20.953H20.145V96.608H.7V5.458H34.122A26.921,26.921,0,0,1,40.5,58.629L67.24,96.912H44.452L25.007,67.136V45.26h4.558c7.292,0,13.065-5.469,13.065-11.85A12.321,12.321,0,0,0,30.172,20.953h0" transform="translate(-0.7 -0.9)" fill="#d2003c" fill-rule="evenodd"/>
        <path id="Shape-2" data-name="Shape" d="M41.142,61.667a11.258,11.258,0,0,1,22.484-1.215v1.215ZM81.248,72c0-1.215.3-2.431.3-3.95C81.855,48.3,68.791,37.36,52.08,37.36a30.385,30.385,0,0,0,0,60.767c12.761,0,22.484-5.773,27.649-14.584L64.841,76.555a12.958,12.958,0,0,1-11.546,6.988c-6.988,0-12.457-5.165-12.457-11.242v-.608C41.142,72,81.248,72,81.248,72Zm41.322,10.634c-7.292,0-13.369-6.684-13.369-14.584,0-8.2,6.077-14.584,13.369-14.584s13.369,6.684,13.369,14.584C135.938,76.251,129.861,82.632,122.569,82.632Zm31.295,13.976V.9h-18.23V46.171a26.029,26.029,0,0,0-18.23-7.6c-14.888,0-27.345,13.369-27.345,29.776S102.212,98.127,117.4,98.127a26.5,26.5,0,0,0,18.534-7.9v6.381Zm61.982-15.8H198.528V20.953h12.153c5.469,0,9.723,4.861,9.723,10.33a9.6,9.6,0,0,1-9.723,9.723H204.3V57.413h11.546a11.285,11.285,0,0,1,11.242,11.546v.3c-.3,6.381-4.254,11.242-11.242,11.546m15.192-33.726a23.312,23.312,0,0,0,7.9-17.622,24.03,24.03,0,0,0-6.684-16.407C228,8.192,220.1,5.761,209.77,5.761H178.779v91.15h40.41c15.5-.3,27.953-11.85,27.953-26.13-.3-10.634-3.95-17.926-16.1-23.7" transform="translate(42.717 -0.9)" fill="#d2003c" fill-rule="evenodd"/>
      </g>
    </g>
  </g>
</svg>